<mxfile host="Electron" modified="2024-03-10T13:16:43.606Z" agent="Mozilla/5.0 (Macintosh; Intel Mac OS X 10_15_7) AppleWebKit/537.36 (KHTML, like Gecko) draw.io/24.0.4 Chrome/120.0.6099.109 Electron/28.1.0 Safari/537.36" etag="rzCbvxzlsOgGzRv1pVde" version="24.0.4" type="device">
  <diagram name="Page-1" id="97916047-d0de-89f5-080d-49f4d83e522f">
    <mxGraphModel dx="3187.5" dy="824" grid="1" gridSize="10" guides="1" tooltips="1" connect="1" arrows="1" fold="1" page="1" pageScale="1.5" pageWidth="1169" pageHeight="827" background="none" math="0" shadow="0">
      <root>
        <mxCell id="0" />
        <mxCell id="1" parent="0" />
        <mxCell id="IsYjXvRWuT8s05YEtsvt-63" value="Horizontal Tree Layout" style="swimlane;startSize=20;horizontal=0;childLayout=treeLayout;horizontalTree=1;resizable=0;containerType=tree;fontSize=12;" vertex="1" parent="1">
          <mxGeometry x="-450" y="90" width="460" height="552" as="geometry" />
        </mxCell>
        <mxCell id="IsYjXvRWuT8s05YEtsvt-64" value="Open Sponsor" style="whiteSpace=wrap;html=1;" vertex="1" parent="IsYjXvRWuT8s05YEtsvt-63">
          <mxGeometry x="40" y="276" width="100" height="40" as="geometry" />
        </mxCell>
        <mxCell id="IsYjXvRWuT8s05YEtsvt-65" value="Child 1" style="whiteSpace=wrap;html=1;" vertex="1" parent="IsYjXvRWuT8s05YEtsvt-63">
          <mxGeometry x="190" y="60" width="100" height="40" as="geometry" />
        </mxCell>
        <mxCell id="IsYjXvRWuT8s05YEtsvt-66" value="" style="edgeStyle=elbowEdgeStyle;elbow=horizontal;html=1;rounded=1;curved=0;sourcePerimeterSpacing=0;targetPerimeterSpacing=0;startSize=6;endSize=6;" edge="1" parent="IsYjXvRWuT8s05YEtsvt-63" source="IsYjXvRWuT8s05YEtsvt-64" target="IsYjXvRWuT8s05YEtsvt-65">
          <mxGeometry relative="1" as="geometry" />
        </mxCell>
        <mxCell id="IsYjXvRWuT8s05YEtsvt-67" value="Child 2" style="whiteSpace=wrap;html=1;" vertex="1" parent="IsYjXvRWuT8s05YEtsvt-63">
          <mxGeometry x="190" y="180" width="100" height="40" as="geometry" />
        </mxCell>
        <mxCell id="IsYjXvRWuT8s05YEtsvt-68" value="" style="edgeStyle=elbowEdgeStyle;elbow=horizontal;html=1;rounded=1;curved=0;sourcePerimeterSpacing=0;targetPerimeterSpacing=0;startSize=6;endSize=6;" edge="1" parent="IsYjXvRWuT8s05YEtsvt-63" source="IsYjXvRWuT8s05YEtsvt-64" target="IsYjXvRWuT8s05YEtsvt-67">
          <mxGeometry relative="1" as="geometry" />
        </mxCell>
        <mxCell id="IsYjXvRWuT8s05YEtsvt-69" value="" style="edgeStyle=elbowEdgeStyle;elbow=horizontal;html=1;rounded=1;curved=0;sourcePerimeterSpacing=0;targetPerimeterSpacing=0;startSize=6;endSize=6;" edge="1" target="IsYjXvRWuT8s05YEtsvt-70" source="IsYjXvRWuT8s05YEtsvt-67" parent="IsYjXvRWuT8s05YEtsvt-63">
          <mxGeometry relative="1" as="geometry">
            <mxPoint x="-310" y="-1070" as="sourcePoint" />
          </mxGeometry>
        </mxCell>
        <mxCell id="IsYjXvRWuT8s05YEtsvt-70" value="Child 2" style="whiteSpace=wrap;html=1;" vertex="1" parent="IsYjXvRWuT8s05YEtsvt-63">
          <mxGeometry x="340" y="180" width="100" height="40" as="geometry" />
        </mxCell>
        <mxCell id="IsYjXvRWuT8s05YEtsvt-71" value="" style="edgeStyle=elbowEdgeStyle;elbow=horizontal;html=1;rounded=1;curved=0;sourcePerimeterSpacing=0;targetPerimeterSpacing=0;startSize=6;endSize=6;" edge="1" target="IsYjXvRWuT8s05YEtsvt-72" source="IsYjXvRWuT8s05YEtsvt-65" parent="IsYjXvRWuT8s05YEtsvt-63">
          <mxGeometry relative="1" as="geometry">
            <mxPoint x="-310" y="-1070" as="sourcePoint" />
          </mxGeometry>
        </mxCell>
        <mxCell id="IsYjXvRWuT8s05YEtsvt-72" value="Child 1" style="whiteSpace=wrap;html=1;" vertex="1" parent="IsYjXvRWuT8s05YEtsvt-63">
          <mxGeometry x="340" y="20" width="100" height="40" as="geometry" />
        </mxCell>
        <mxCell id="IsYjXvRWuT8s05YEtsvt-73" value="" style="edgeStyle=elbowEdgeStyle;elbow=horizontal;html=1;rounded=1;curved=0;sourcePerimeterSpacing=0;targetPerimeterSpacing=0;startSize=6;endSize=6;" edge="1" target="IsYjXvRWuT8s05YEtsvt-74" source="IsYjXvRWuT8s05YEtsvt-65" parent="IsYjXvRWuT8s05YEtsvt-63">
          <mxGeometry relative="1" as="geometry">
            <mxPoint x="-310" y="-1070" as="sourcePoint" />
          </mxGeometry>
        </mxCell>
        <mxCell id="IsYjXvRWuT8s05YEtsvt-74" value="Child 1" style="whiteSpace=wrap;html=1;" vertex="1" parent="IsYjXvRWuT8s05YEtsvt-63">
          <mxGeometry x="340" y="100" width="100" height="40" as="geometry" />
        </mxCell>
        <mxCell id="IsYjXvRWuT8s05YEtsvt-83" value="" style="edgeStyle=elbowEdgeStyle;elbow=horizontal;html=1;rounded=1;curved=0;sourcePerimeterSpacing=0;targetPerimeterSpacing=0;startSize=6;endSize=6;" edge="1" target="IsYjXvRWuT8s05YEtsvt-84" source="IsYjXvRWuT8s05YEtsvt-64" parent="IsYjXvRWuT8s05YEtsvt-63">
          <mxGeometry relative="1" as="geometry">
            <mxPoint x="-310" y="-410" as="sourcePoint" />
          </mxGeometry>
        </mxCell>
        <mxCell id="IsYjXvRWuT8s05YEtsvt-84" value="Child 2" style="whiteSpace=wrap;html=1;" vertex="1" parent="IsYjXvRWuT8s05YEtsvt-63">
          <mxGeometry x="190" y="260" width="100" height="40" as="geometry" />
        </mxCell>
        <mxCell id="IsYjXvRWuT8s05YEtsvt-85" value="" style="edgeStyle=elbowEdgeStyle;elbow=horizontal;html=1;rounded=1;curved=0;sourcePerimeterSpacing=0;targetPerimeterSpacing=0;startSize=6;endSize=6;" edge="1" target="IsYjXvRWuT8s05YEtsvt-86" source="IsYjXvRWuT8s05YEtsvt-64" parent="IsYjXvRWuT8s05YEtsvt-63">
          <mxGeometry relative="1" as="geometry">
            <mxPoint x="-310" y="-270" as="sourcePoint" />
          </mxGeometry>
        </mxCell>
        <mxCell id="IsYjXvRWuT8s05YEtsvt-86" value="Child 2" style="whiteSpace=wrap;html=1;" vertex="1" parent="IsYjXvRWuT8s05YEtsvt-63">
          <mxGeometry x="190" y="380" width="100" height="40" as="geometry" />
        </mxCell>
        <mxCell id="IsYjXvRWuT8s05YEtsvt-87" value="" style="edgeStyle=elbowEdgeStyle;elbow=horizontal;html=1;rounded=1;curved=0;sourcePerimeterSpacing=0;targetPerimeterSpacing=0;startSize=6;endSize=6;" edge="1" target="IsYjXvRWuT8s05YEtsvt-88" source="IsYjXvRWuT8s05YEtsvt-64" parent="IsYjXvRWuT8s05YEtsvt-63">
          <mxGeometry relative="1" as="geometry">
            <mxPoint x="-310" y="-90" as="sourcePoint" />
          </mxGeometry>
        </mxCell>
        <mxCell id="IsYjXvRWuT8s05YEtsvt-88" value="Child 1" style="whiteSpace=wrap;html=1;" vertex="1" parent="IsYjXvRWuT8s05YEtsvt-63">
          <mxGeometry x="190" y="492" width="100" height="40" as="geometry" />
        </mxCell>
        <mxCell id="IsYjXvRWuT8s05YEtsvt-89" value="" style="edgeStyle=elbowEdgeStyle;elbow=horizontal;html=1;rounded=1;curved=0;sourcePerimeterSpacing=0;targetPerimeterSpacing=0;startSize=6;endSize=6;" edge="1" target="IsYjXvRWuT8s05YEtsvt-90" source="IsYjXvRWuT8s05YEtsvt-84" parent="IsYjXvRWuT8s05YEtsvt-63">
          <mxGeometry relative="1" as="geometry">
            <mxPoint x="-310" y="130" as="sourcePoint" />
          </mxGeometry>
        </mxCell>
        <mxCell id="IsYjXvRWuT8s05YEtsvt-90" value="Child 2" style="whiteSpace=wrap;html=1;" vertex="1" parent="IsYjXvRWuT8s05YEtsvt-63">
          <mxGeometry x="340" y="260" width="100" height="40" as="geometry" />
        </mxCell>
        <mxCell id="IsYjXvRWuT8s05YEtsvt-91" value="" style="edgeStyle=elbowEdgeStyle;elbow=horizontal;html=1;rounded=1;curved=0;sourcePerimeterSpacing=0;targetPerimeterSpacing=0;startSize=6;endSize=6;" edge="1" target="IsYjXvRWuT8s05YEtsvt-92" source="IsYjXvRWuT8s05YEtsvt-86" parent="IsYjXvRWuT8s05YEtsvt-63">
          <mxGeometry relative="1" as="geometry">
            <mxPoint x="-310" y="130" as="sourcePoint" />
          </mxGeometry>
        </mxCell>
        <mxCell id="IsYjXvRWuT8s05YEtsvt-92" value="Child 2" style="whiteSpace=wrap;html=1;" vertex="1" parent="IsYjXvRWuT8s05YEtsvt-63">
          <mxGeometry x="340" y="340" width="100" height="40" as="geometry" />
        </mxCell>
        <mxCell id="IsYjXvRWuT8s05YEtsvt-93" value="" style="edgeStyle=elbowEdgeStyle;elbow=horizontal;html=1;rounded=1;curved=0;sourcePerimeterSpacing=0;targetPerimeterSpacing=0;startSize=6;endSize=6;" edge="1" target="IsYjXvRWuT8s05YEtsvt-94" source="IsYjXvRWuT8s05YEtsvt-86" parent="IsYjXvRWuT8s05YEtsvt-63">
          <mxGeometry relative="1" as="geometry">
            <mxPoint x="-310" y="130" as="sourcePoint" />
          </mxGeometry>
        </mxCell>
        <mxCell id="IsYjXvRWuT8s05YEtsvt-94" value="Child 2" style="whiteSpace=wrap;html=1;" vertex="1" parent="IsYjXvRWuT8s05YEtsvt-63">
          <mxGeometry x="340" y="420" width="100" height="40" as="geometry" />
        </mxCell>
      </root>
    </mxGraphModel>
  </diagram>
</mxfile>
